ISO-10303-21;
HEADER;
/* Generated by software containing ST-Developer
 * from STEP Tools, Inc. (www.steptools.com) 
 */

FILE_DESCRIPTION(
/* description */ (''),
/* implementation_level */ '2;1');

FILE_NAME(
/* name */ 'tray-rack.step',
/* time_stamp */ '2025-11-10T19:14:21Z',
/* author */ (''),
/* organization */ (''),
/* preprocessor_version */ 'ST-DEVELOPER v20.1',
/* originating_system */ 'Autodesk Translation Framework v14.21.0.0',
/* authorisation */ '');

FILE_SCHEMA (('AUTOMOTIVE_DESIGN { 1 0 10303 214 3 1 1 }'));
ENDSEC;

DATA;
#10=MECHANICAL_DESIGN_GEOMETRIC_PRESENTATION_REPRESENTATION('',(#13),#247);
#11=SHAPE_REPRESENTATION_RELATIONSHIP('SRR','None',#254,#12);
#12=ADVANCED_BREP_SHAPE_REPRESENTATION('',(#14),#246);
#13=STYLED_ITEM('',(#263),#14);
#14=MANIFOLD_SOLID_BREP('Body1',#129);
#15=FACE_BOUND('',#44,.T.);
#16=FACE_BOUND('',#48,.T.);
#17=LINE('',#225,#21);
#18=LINE('',#228,#22);
#19=LINE('',#235,#23);
#20=LINE('',#240,#24);
#21=VECTOR('',#183,6.);
#22=VECTOR('',#188,5.00000007450581);
#23=VECTOR('',#197,23.5);
#24=VECTOR('',#202,25.);
#25=CYLINDRICAL_SURFACE('',#151,6.);
#26=CYLINDRICAL_SURFACE('',#153,5.00000007450581);
#27=CYLINDRICAL_SURFACE('',#156,23.5);
#28=CYLINDRICAL_SURFACE('',#158,25.);
#29=TOROIDAL_SURFACE('',#145,4.,2.);
#30=FACE_OUTER_BOUND('',#39,.T.);
#31=FACE_OUTER_BOUND('',#40,.T.);
#32=FACE_OUTER_BOUND('',#41,.T.);
#33=FACE_OUTER_BOUND('',#42,.T.);
#34=FACE_OUTER_BOUND('',#43,.T.);
#35=FACE_OUTER_BOUND('',#45,.T.);
#36=FACE_OUTER_BOUND('',#46,.T.);
#37=FACE_OUTER_BOUND('',#47,.T.);
#38=FACE_OUTER_BOUND('',#49,.T.);
#39=EDGE_LOOP('',(#86));
#40=EDGE_LOOP('',(#87,#88,#89,#90,#91,#92));
#41=EDGE_LOOP('',(#93,#94,#95,#96,#97));
#42=EDGE_LOOP('',(#98,#99,#100,#101,#102));
#43=EDGE_LOOP('',(#103));
#44=EDGE_LOOP('',(#104));
#45=EDGE_LOOP('',(#105,#106,#107,#108));
#46=EDGE_LOOP('',(#109,#110,#111,#112));
#47=EDGE_LOOP('',(#113));
#48=EDGE_LOOP('',(#114));
#49=EDGE_LOOP('',(#115));
#50=CIRCLE('',#144,5.00000007450581);
#51=CIRCLE('',#146,6.);
#52=CIRCLE('',#147,6.);
#53=CIRCLE('',#148,2.);
#54=CIRCLE('',#149,5.00000007450581);
#55=CIRCLE('',#150,5.00000007450581);
#56=CIRCLE('',#152,6.);
#57=CIRCLE('',#155,23.5);
#58=CIRCLE('',#157,23.5);
#59=CIRCLE('',#159,25.);
#60=CIRCLE('',#160,25.);
#61=VERTEX_POINT('',#211);
#62=VERTEX_POINT('',#214);
#63=VERTEX_POINT('',#215);
#64=VERTEX_POINT('',#218);
#65=VERTEX_POINT('',#220);
#66=VERTEX_POINT('',#224);
#67=VERTEX_POINT('',#230);
#68=VERTEX_POINT('',#233);
#69=VERTEX_POINT('',#237);
#70=VERTEX_POINT('',#239);
#71=EDGE_CURVE('',#61,#61,#50,.T.);
#72=EDGE_CURVE('',#62,#63,#51,.T.);
#73=EDGE_CURVE('',#63,#62,#52,.T.);
#74=EDGE_CURVE('',#62,#64,#53,.T.);
#75=EDGE_CURVE('',#65,#64,#54,.T.);
#76=EDGE_CURVE('',#64,#65,#55,.T.);
#77=EDGE_CURVE('',#63,#66,#17,.T.);
#78=EDGE_CURVE('',#66,#66,#56,.T.);
#79=EDGE_CURVE('',#61,#65,#18,.T.);
#80=EDGE_CURVE('',#67,#67,#57,.T.);
#81=EDGE_CURVE('',#68,#68,#58,.T.);
#82=EDGE_CURVE('',#68,#67,#19,.T.);
#83=EDGE_CURVE('',#69,#69,#59,.T.);
#84=EDGE_CURVE('',#69,#70,#20,.T.);
#85=EDGE_CURVE('',#70,#70,#60,.T.);
#86=ORIENTED_EDGE('',*,*,#71,.T.);
#87=ORIENTED_EDGE('',*,*,#72,.T.);
#88=ORIENTED_EDGE('',*,*,#73,.T.);
#89=ORIENTED_EDGE('',*,*,#74,.T.);
#90=ORIENTED_EDGE('',*,*,#75,.F.);
#91=ORIENTED_EDGE('',*,*,#76,.F.);
#92=ORIENTED_EDGE('',*,*,#74,.F.);
#93=ORIENTED_EDGE('',*,*,#72,.F.);
#94=ORIENTED_EDGE('',*,*,#73,.F.);
#95=ORIENTED_EDGE('',*,*,#77,.T.);
#96=ORIENTED_EDGE('',*,*,#78,.F.);
#97=ORIENTED_EDGE('',*,*,#77,.F.);
#98=ORIENTED_EDGE('',*,*,#71,.F.);
#99=ORIENTED_EDGE('',*,*,#79,.T.);
#100=ORIENTED_EDGE('',*,*,#75,.T.);
#101=ORIENTED_EDGE('',*,*,#76,.T.);
#102=ORIENTED_EDGE('',*,*,#79,.F.);
#103=ORIENTED_EDGE('',*,*,#80,.F.);
#104=ORIENTED_EDGE('',*,*,#78,.T.);
#105=ORIENTED_EDGE('',*,*,#81,.F.);
#106=ORIENTED_EDGE('',*,*,#82,.T.);
#107=ORIENTED_EDGE('',*,*,#80,.T.);
#108=ORIENTED_EDGE('',*,*,#82,.F.);
#109=ORIENTED_EDGE('',*,*,#83,.F.);
#110=ORIENTED_EDGE('',*,*,#84,.T.);
#111=ORIENTED_EDGE('',*,*,#85,.T.);
#112=ORIENTED_EDGE('',*,*,#84,.F.);
#113=ORIENTED_EDGE('',*,*,#83,.T.);
#114=ORIENTED_EDGE('',*,*,#81,.T.);
#115=ORIENTED_EDGE('',*,*,#85,.F.);
#116=PLANE('',#143);
#117=PLANE('',#154);
#118=PLANE('',#161);
#119=PLANE('',#162);
#120=ADVANCED_FACE('',(#30),#116,.T.);
#121=ADVANCED_FACE('',(#31),#29,.T.);
#122=ADVANCED_FACE('',(#32),#25,.T.);
#123=ADVANCED_FACE('',(#33),#26,.T.);
#124=ADVANCED_FACE('',(#34,#15),#117,.T.);
#125=ADVANCED_FACE('',(#35),#27,.F.);
#126=ADVANCED_FACE('',(#36),#28,.T.);
#127=ADVANCED_FACE('',(#37,#16),#118,.T.);
#128=ADVANCED_FACE('',(#38),#119,.F.);
#129=CLOSED_SHELL('',(#120,#121,#122,#123,#124,#125,#126,#127,#128));
#130=DERIVED_UNIT_ELEMENT(#132,1.);
#131=DERIVED_UNIT_ELEMENT(#249,-3.);
#132=(
MASS_UNIT()
NAMED_UNIT(*)
SI_UNIT(.KILO.,.GRAM.)
);
#133=DERIVED_UNIT((#130,#131));
#134=MEASURE_REPRESENTATION_ITEM('density measure',
POSITIVE_RATIO_MEASURE(7850.),#133);
#135=PROPERTY_DEFINITION_REPRESENTATION(#140,#137);
#136=PROPERTY_DEFINITION_REPRESENTATION(#141,#138);
#137=REPRESENTATION('material name',(#139),#246);
#138=REPRESENTATION('density',(#134),#246);
#139=DESCRIPTIVE_REPRESENTATION_ITEM('Steel','Steel');
#140=PROPERTY_DEFINITION('material property','material name',#256);
#141=PROPERTY_DEFINITION('material property','density of part',#256);
#142=AXIS2_PLACEMENT_3D('',#209,#163,#164);
#143=AXIS2_PLACEMENT_3D('',#210,#165,#166);
#144=AXIS2_PLACEMENT_3D('',#212,#167,#168);
#145=AXIS2_PLACEMENT_3D('',#213,#169,#170);
#146=AXIS2_PLACEMENT_3D('',#216,#171,#172);
#147=AXIS2_PLACEMENT_3D('',#217,#173,#174);
#148=AXIS2_PLACEMENT_3D('',#219,#175,#176);
#149=AXIS2_PLACEMENT_3D('',#221,#177,#178);
#150=AXIS2_PLACEMENT_3D('',#222,#179,#180);
#151=AXIS2_PLACEMENT_3D('',#223,#181,#182);
#152=AXIS2_PLACEMENT_3D('',#226,#184,#185);
#153=AXIS2_PLACEMENT_3D('',#227,#186,#187);
#154=AXIS2_PLACEMENT_3D('',#229,#189,#190);
#155=AXIS2_PLACEMENT_3D('',#231,#191,#192);
#156=AXIS2_PLACEMENT_3D('',#232,#193,#194);
#157=AXIS2_PLACEMENT_3D('',#234,#195,#196);
#158=AXIS2_PLACEMENT_3D('',#236,#198,#199);
#159=AXIS2_PLACEMENT_3D('',#238,#200,#201);
#160=AXIS2_PLACEMENT_3D('',#241,#203,#204);
#161=AXIS2_PLACEMENT_3D('',#242,#205,#206);
#162=AXIS2_PLACEMENT_3D('',#243,#207,#208);
#163=DIRECTION('axis',(0.,0.,1.));
#164=DIRECTION('refdir',(1.,0.,0.));
#165=DIRECTION('center_axis',(0.,0.,1.));
#166=DIRECTION('ref_axis',(-1.,0.,0.));
#167=DIRECTION('center_axis',(0.,0.,1.));
#168=DIRECTION('ref_axis',(-1.,0.,0.));
#169=DIRECTION('center_axis',(0.,0.,-1.));
#170=DIRECTION('ref_axis',(1.,0.,0.));
#171=DIRECTION('center_axis',(0.,0.,1.));
#172=DIRECTION('ref_axis',(1.,0.,0.));
#173=DIRECTION('center_axis',(0.,0.,1.));
#174=DIRECTION('ref_axis',(1.,0.,0.));
#175=DIRECTION('center_axis',(-1.22464679914735E-16,1.,0.));
#176=DIRECTION('ref_axis',(-1.,-1.22464679914735E-16,0.));
#177=DIRECTION('center_axis',(0.,0.,1.));
#178=DIRECTION('ref_axis',(-1.,0.,0.));
#179=DIRECTION('center_axis',(0.,0.,1.));
#180=DIRECTION('ref_axis',(-1.,0.,0.));
#181=DIRECTION('center_axis',(0.,0.,1.));
#182=DIRECTION('ref_axis',(-1.,0.,0.));
#183=DIRECTION('',(0.,0.,-1.));
#184=DIRECTION('center_axis',(0.,0.,-1.));
#185=DIRECTION('ref_axis',(-1.,0.,0.));
#186=DIRECTION('center_axis',(0.,0.,1.));
#187=DIRECTION('ref_axis',(-1.,0.,0.));
#188=DIRECTION('',(0.,0.,-1.));
#189=DIRECTION('center_axis',(0.,0.,1.));
#190=DIRECTION('ref_axis',(-1.,0.,0.));
#191=DIRECTION('center_axis',(0.,0.,-1.));
#192=DIRECTION('ref_axis',(-1.,0.,0.));
#193=DIRECTION('center_axis',(0.,0.,1.));
#194=DIRECTION('ref_axis',(-1.,0.,0.));
#195=DIRECTION('center_axis',(0.,0.,-1.));
#196=DIRECTION('ref_axis',(-1.,0.,0.));
#197=DIRECTION('',(0.,0.,-1.));
#198=DIRECTION('center_axis',(0.,0.,1.));
#199=DIRECTION('ref_axis',(-1.,0.,0.));
#200=DIRECTION('center_axis',(0.,0.,1.));
#201=DIRECTION('ref_axis',(-1.,0.,0.));
#202=DIRECTION('',(0.,0.,-1.));
#203=DIRECTION('center_axis',(0.,0.,1.));
#204=DIRECTION('ref_axis',(-1.,0.,0.));
#205=DIRECTION('center_axis',(0.,0.,1.));
#206=DIRECTION('ref_axis',(-1.,0.,0.));
#207=DIRECTION('center_axis',(0.,0.,1.));
#208=DIRECTION('ref_axis',(-1.,0.,0.));
#209=CARTESIAN_POINT('',(0.,0.,0.));
#210=CARTESIAN_POINT('Origin',(0.,0.,144.));
#211=CARTESIAN_POINT('',(5.00000007450581,6.12323408698006E-16,144.));
#212=CARTESIAN_POINT('Origin',(0.,0.,144.));
#213=CARTESIAN_POINT('Origin',(0.,0.,7.26794923544707));
#214=CARTESIAN_POINT('',(-6.,-7.34788079488412E-16,7.26794923544707));
#215=CARTESIAN_POINT('',(6.,7.34788079488412E-16,7.26794923544707));
#216=CARTESIAN_POINT('Origin',(0.,0.,7.26794923544707));
#217=CARTESIAN_POINT('Origin',(0.,0.,7.26794923544707));
#218=CARTESIAN_POINT('',(-5.00000007450581,-6.12323408698006E-16,9.));
#219=CARTESIAN_POINT('Origin',(-4.,-4.89858719658941E-16,7.26794923544707));
#220=CARTESIAN_POINT('',(5.,6.12323399573677E-16,9.));
#221=CARTESIAN_POINT('Origin',(0.,0.,9.));
#222=CARTESIAN_POINT('Origin',(0.,0.,9.));
#223=CARTESIAN_POINT('Origin',(0.,0.,7.00000000000001));
#224=CARTESIAN_POINT('',(6.,7.34788079488412E-16,7.00000000000001));
#225=CARTESIAN_POINT('',(6.,7.34788079488412E-16,7.00000000000001));
#226=CARTESIAN_POINT('Origin',(0.,0.,7.00000000000001));
#227=CARTESIAN_POINT('Origin',(0.,0.,7.00000000000001));
#228=CARTESIAN_POINT('',(5.00000007450581,6.12323408698006E-16,7.00000000000001));
#229=CARTESIAN_POINT('Origin',(0.,0.,7.00000000000001));
#230=CARTESIAN_POINT('',(23.5,2.87791997799628E-15,7.00000000000001));
#231=CARTESIAN_POINT('Origin',(0.,0.,7.00000000000001));
#232=CARTESIAN_POINT('Origin',(0.,0.,4.));
#233=CARTESIAN_POINT('',(23.5,2.87791997799628E-15,29.));
#234=CARTESIAN_POINT('Origin',(0.,0.,29.));
#235=CARTESIAN_POINT('',(23.5,2.87791997799628E-15,4.));
#236=CARTESIAN_POINT('Origin',(0.,0.,4.));
#237=CARTESIAN_POINT('',(25.,3.06161699786838E-15,29.));
#238=CARTESIAN_POINT('Origin',(0.,0.,29.));
#239=CARTESIAN_POINT('',(25.,3.06161699786838E-15,4.));
#240=CARTESIAN_POINT('',(25.,3.06161699786838E-15,4.));
#241=CARTESIAN_POINT('Origin',(0.,0.,4.));
#242=CARTESIAN_POINT('Origin',(0.,0.,29.));
#243=CARTESIAN_POINT('Origin',(0.,0.,4.));
#244=UNCERTAINTY_MEASURE_WITH_UNIT(LENGTH_MEASURE(0.01),#248,
'DISTANCE_ACCURACY_VALUE',
'Maximum model space distance between geometric entities at asserted c
onnectivities');
#245=UNCERTAINTY_MEASURE_WITH_UNIT(LENGTH_MEASURE(0.01),#248,
'DISTANCE_ACCURACY_VALUE',
'Maximum model space distance between geometric entities at asserted c
onnectivities');
#246=(
GEOMETRIC_REPRESENTATION_CONTEXT(3)
GLOBAL_UNCERTAINTY_ASSIGNED_CONTEXT((#244))
GLOBAL_UNIT_ASSIGNED_CONTEXT((#248,#250,#251))
REPRESENTATION_CONTEXT('','3D')
);
#247=(
GEOMETRIC_REPRESENTATION_CONTEXT(3)
GLOBAL_UNCERTAINTY_ASSIGNED_CONTEXT((#245))
GLOBAL_UNIT_ASSIGNED_CONTEXT((#248,#250,#251))
REPRESENTATION_CONTEXT('','3D')
);
#248=(
LENGTH_UNIT()
NAMED_UNIT(*)
SI_UNIT(.MILLI.,.METRE.)
);
#249=(
LENGTH_UNIT()
NAMED_UNIT(*)
SI_UNIT($,.METRE.)
);
#250=(
NAMED_UNIT(*)
PLANE_ANGLE_UNIT()
SI_UNIT($,.RADIAN.)
);
#251=(
NAMED_UNIT(*)
SI_UNIT($,.STERADIAN.)
SOLID_ANGLE_UNIT()
);
#252=SHAPE_DEFINITION_REPRESENTATION(#253,#254);
#253=PRODUCT_DEFINITION_SHAPE('',$,#256);
#254=SHAPE_REPRESENTATION('',(#142),#246);
#255=PRODUCT_DEFINITION_CONTEXT('part definition',#260,'design');
#256=PRODUCT_DEFINITION('FusionComponent','FusionComponent',#257,#255);
#257=PRODUCT_DEFINITION_FORMATION('',$,#262);
#258=PRODUCT_RELATED_PRODUCT_CATEGORY('FusionComponent',
'FusionComponent',(#262));
#259=APPLICATION_PROTOCOL_DEFINITION('international standard',
'automotive_design',2009,#260);
#260=APPLICATION_CONTEXT(
'Core Data for Automotive Mechanical Design Process');
#261=PRODUCT_CONTEXT('part definition',#260,'mechanical');
#262=PRODUCT('FusionComponent','FusionComponent',$,(#261));
#263=PRESENTATION_STYLE_ASSIGNMENT((#264));
#264=SURFACE_STYLE_USAGE(.BOTH.,#265);
#265=SURFACE_SIDE_STYLE('',(#266));
#266=SURFACE_STYLE_FILL_AREA(#267);
#267=FILL_AREA_STYLE('Steel - Satin',(#268));
#268=FILL_AREA_STYLE_COLOUR('Steel - Satin',#269);
#269=COLOUR_RGB('Steel - Satin',0.627450980392157,0.627450980392157,0.627450980392157);
ENDSEC;
END-ISO-10303-21;
